<svg width="34" height="34" viewBox="0 0 34 34" fill="none" xmlns="http://www.w3.org/2000/svg">
<path d="M24.7917 9.20834H24.8058M9.91668 2.83334H24.0833C27.9954 2.83334 31.1667 6.00466 31.1667 9.91668V24.0833C31.1667 27.9954 27.9954 31.1667 24.0833 31.1667H9.91668C6.00466 31.1667 2.83334 27.9954 2.83334 24.0833V9.91668C2.83334 6.00466 6.00466 2.83334 9.91668 2.83334ZM22.6667 16.1075C22.8415 17.2865 22.6401 18.4906 22.0912 19.5486C21.5422 20.6066 20.6736 21.4645 19.609 22.0004C18.5443 22.5363 17.3378 22.7228 16.161 22.5334C14.9843 22.3441 13.8972 21.7885 13.0544 20.9457C12.2116 20.1028 11.656 19.0157 11.4666 17.839C11.2772 16.6622 11.4638 15.4557 11.9996 14.391C12.5355 13.3264 13.3934 12.4578 14.4514 11.9089C15.5094 11.3599 16.7135 11.1585 17.8925 11.3333C19.0952 11.5117 20.2085 12.0721 21.0682 12.9318C21.9279 13.7915 22.4883 14.9049 22.6667 16.1075Z" stroke="#1E1E1E" stroke-width="4" stroke-linecap="round" stroke-linejoin="round"/>
</svg>
